<?xml version="1.0" encoding="UTF-8"?>
<!DOCTYPE svg PUBLIC "-//W3C//DTD SVG 1.1//EN" "http://www.w3.org/Graphics/SVG/1.1/DTD/svg11.dtd">
<svg xmlns="http://www.w3.org/2000/svg" version="1.1" width="651px" height="651px" style="shape-rendering:geometricPrecision; text-rendering:geometricPrecision; image-rendering:optimizeQuality; fill-rule:evenodd; clip-rule:evenodd" xmlns:xlink="http://www.w3.org/1999/xlink">
<g><path style="opacity:0.007" fill="#fefffe" d="M 420.5,42.5 C 417.997,43.3705 415.33,44.0372 412.5,44.5C 412.389,43.8826 412.056,43.3826 411.5,43C 414.482,42.502 417.482,42.3354 420.5,42.5 Z"/></g>
<g><path style="opacity:1" fill="#33acec" d="M 588.5,151.5 C 588.796,153.403 589.463,155.07 590.5,156.5C 591.978,165.758 592.978,175.091 593.5,184.5C 592.778,184.082 592.278,183.416 592,182.5C 591.833,198.844 591.333,215.177 590.5,231.5C 589.77,228.103 587.77,226.103 584.5,225.5C 579.184,219.849 573.85,214.183 568.5,208.5C 568.735,207.903 569.235,207.57 570,207.5C 572.322,209.322 574.489,211.322 576.5,213.5C 583.03,167.949 572.53,126.949 545,90.5C 517.016,60.765 482.516,46.265 441.5,47C 502.316,54.159 541.483,86.9924 559,145.5C 563.892,165.903 566.392,186.57 566.5,207.5C 562.621,204.096 558.288,201.429 553.5,199.5C 553.158,198.662 552.492,198.328 551.5,198.5C 550.71,197.599 549.71,196.932 548.5,196.5C 547.883,196.389 547.383,196.056 547,195.5C 547.347,184.193 547.013,172.86 546,161.5C 545.205,157.688 544.371,154.021 543.5,150.5C 537.166,123.178 523.166,100.511 501.5,82.5C 491.602,74.8926 481.269,68.226 470.5,62.5C 471.552,62.6495 472.552,62.4828 473.5,62C 456.641,54.933 438.641,50.0996 419.5,47.5C 416.102,47.8204 412.768,47.487 409.5,46.5C 410.243,45.8182 410.909,45.1515 411.5,44.5C 411.833,44.5 412.167,44.5 412.5,44.5C 415.33,44.0372 417.997,43.3705 420.5,42.5C 466.096,35.7173 507.096,45.8839 543.5,73C 567.782,94.0901 582.782,120.257 588.5,151.5 Z"/></g>
<g><path style="opacity:0.831" fill="#619db9" d="M 411.5,44.5 C 410.909,45.1515 410.243,45.8182 409.5,46.5C 412.768,47.487 416.102,47.8204 419.5,47.5C 418.167,48.1667 416.833,48.8333 415.5,49.5C 410.5,49.5 405.5,49.5 400.5,49.5C 399.5,49.5 398.5,49.5 397.5,49.5C 397.5,48.5 397.5,47.5 397.5,46.5C 401.959,45.0243 406.626,44.3576 411.5,44.5 Z"/></g>
<g><path style="opacity:0.006" fill="#fefffe" d="M 400.5,49.5 C 405.5,49.5 410.5,49.5 415.5,49.5C 417.117,50.038 418.784,50.3713 420.5,50.5C 419.551,51.1524 418.385,51.4857 417,51.5C 411.331,51.0063 405.831,50.3396 400.5,49.5 Z"/></g>
<g><path style="opacity:0.006" fill="#fefffe" d="M 422.5,50.5 C 423.167,50.5 423.833,50.5 424.5,50.5C 425.167,51.8333 425.833,51.8333 426.5,50.5C 429.28,51.0784 431.947,51.7451 434.5,52.5C 430.818,52.6653 427.152,52.4986 423.5,52C 422.944,51.6174 422.611,51.1174 422.5,50.5 Z"/></g>
<g><path style="opacity:0.178" fill="#53afde" d="M 419.5,47.5 C 438.641,50.0996 456.641,54.933 473.5,62C 472.552,62.4828 471.552,62.6495 470.5,62.5C 462.818,59.9345 455.152,57.4345 447.5,55C 443.246,53.6859 438.913,52.8526 434.5,52.5C 431.947,51.7451 429.28,51.0784 426.5,50.5C 425.833,50.5 425.167,50.5 424.5,50.5C 423.833,50.5 423.167,50.5 422.5,50.5C 421.833,50.5 421.167,50.5 420.5,50.5C 418.784,50.3713 417.117,50.038 415.5,49.5C 416.833,48.8333 418.167,48.1667 419.5,47.5 Z"/></g>
<g><path style="opacity:0.998" fill="#737170" d="M 447.5,100.5 C 447.158,99.6618 446.492,99.3284 445.5,99.5C 413.31,93.6057 381.977,96.7724 351.5,109C 304.523,127.693 262.523,154.026 225.5,188C 217.173,188.5 208.84,188.666 200.5,188.5C 202.557,184.933 205.223,181.766 208.5,179C 243.114,148.008 281.781,123.008 324.5,104C 348.951,94.1059 374.284,87.7726 400.5,85C 433.141,81.5815 462.808,88.9148 489.5,107C 466.076,86.6903 438.743,77.1903 407.5,78.5C 372.831,79.2675 339.831,87.1008 308.5,102C 262.628,123.415 222.295,152.249 187.5,188.5C 182.833,188.5 178.167,188.5 173.5,188.5C 173.351,187.448 173.517,186.448 174,185.5C 213.913,142.799 260.413,109.299 313.5,85C 348.172,69.2655 384.505,62.2655 422.5,64C 464.408,67.2866 494.242,87.7866 512,125.5C 517.637,140.657 520.471,156.323 520.5,172.5C 519.325,172.719 518.325,172.386 517.5,171.5C 508.007,142.52 490.007,120.686 463.5,106C 458.35,103.548 453.016,101.715 447.5,100.5 Z"/></g>
<g><path style="opacity:1" fill="#0171b7" d="M 568.5,208.5 C 567.075,210.031 566.409,209.698 566.5,207.5C 566.392,186.57 563.892,165.903 559,145.5C 541.483,86.9924 502.316,54.159 441.5,47C 482.516,46.265 517.016,60.765 545,90.5C 572.53,126.949 583.03,167.949 576.5,213.5C 574.489,211.322 572.322,209.322 570,207.5C 569.235,207.57 568.735,207.903 568.5,208.5 Z"/></g>
<g><path style="opacity:1" fill="#bdbdbd" d="M 200.5,188.5 C 196.167,188.5 191.833,188.5 187.5,188.5C 222.295,152.249 262.628,123.415 308.5,102C 339.831,87.1008 372.831,79.2675 407.5,78.5C 438.743,77.1903 466.076,86.6903 489.5,107C 462.808,88.9148 433.141,81.5815 400.5,85C 374.284,87.7726 348.951,94.1059 324.5,104C 281.781,123.008 243.114,148.008 208.5,179C 205.223,181.766 202.557,184.933 200.5,188.5 Z"/></g>
<g><path style="opacity:0.007" fill="#fefffe" d="M 445.5,99.5 C 446.492,99.3284 447.158,99.6618 447.5,100.5C 446.377,101.757 445.711,101.424 445.5,99.5 Z"/></g>
<g><path style="opacity:0.004" fill="#fefffe" d="M 543.5,150.5 C 542.833,151.167 542.833,151.167 543.5,150.5 Z"/></g>
<g><path style="opacity:0.008" fill="#fefffe" d="M 588.5,151.5 C 590.213,152.635 590.88,154.302 590.5,156.5C 589.463,155.07 588.796,153.403 588.5,151.5 Z"/></g>
<g><path style="opacity:0.005" fill="#fefffe" d="M 548.5,196.5 C 549.71,196.932 550.71,197.599 551.5,198.5C 549.821,198.715 548.821,198.048 548.5,196.5 Z"/></g>
<g><path style="opacity:0.004" fill="#fefffe" d="M 553.5,199.5 C 552.833,200.167 552.833,200.167 553.5,199.5 Z"/></g>
<g><path style="opacity:1" fill="#28a5dd" d="M 255.5,346.5 C 213.571,345.34 171.571,345.173 129.5,346C 131.619,346.342 131.953,347.175 130.5,348.5C 130.5,377.167 130.5,405.833 130.5,434.5C 128.673,405.184 127.839,375.517 128,345.5C 127.5,374.831 127.333,404.165 127.5,433.5C 118.5,433.5 109.5,433.5 100.5,433.5C 100.5,396.5 100.5,359.5 100.5,322.5C 151.336,322.832 202.003,322.499 252.5,321.5C 271.438,318.065 283.604,307.065 289,288.5C 292.31,257.262 278.477,239.429 247.5,235C 195.096,234.829 142.763,234.329 90.5,233.5C 96.7051,225.606 103.038,217.772 109.5,210C 113.789,209.122 118.122,208.622 122.5,208.5C 163.357,208.621 204.691,208.788 246.5,209C 278.035,210.873 299.868,226.373 312,255.5C 320.129,284.02 313.963,308.853 293.5,330C 282.631,339.6 269.965,345.1 255.5,346.5 Z"/></g>
<g><path style="opacity:0.998" fill="#72706f" d="M 566.5,321.5 C 565.167,322.5 565.167,323.5 566.5,324.5C 583.807,350.445 584.974,377.111 570,404.5C 558.939,420.727 543.773,430.727 524.5,434.5C 474.943,434.642 425.276,434.475 375.5,434C 374.756,432.961 373.756,432.461 372.5,432.5C 367.482,426.81 362.815,420.81 358.5,414.5C 358.5,413.5 358.5,412.5 358.5,411.5C 411.501,411.667 464.501,411.5 517.5,411C 544.438,404.969 557.272,388.135 556,360.5C 551.324,338.988 538.158,326.655 516.5,323.5C 466.658,323.165 416.992,322.165 367.5,320.5C 376.62,312.768 385.953,305.268 395.5,298C 436.165,297.5 476.832,297.333 517.5,297.5C 518.267,298.172 518.934,299.005 519.5,300C 528.268,301.108 536.601,303.608 544.5,307.5C 550.947,301.274 554.78,293.607 556,284.5C 557.274,258.105 545.107,241.605 519.5,235C 465.5,234.667 411.5,234.333 357.5,234C 358.252,233.329 358.586,232.496 358.5,231.5C 363.809,224.519 369.143,217.519 374.5,210.5C 422.497,209.333 470.497,209.167 518.5,210C 551.891,215.392 572.391,234.558 580,267.5C 582.689,287.409 578.189,305.409 566.5,321.5 Z"/></g>
<g><path style="opacity:1" fill="#42aad9" d="M 593.5,184.5 C 593.5,201.833 593.5,219.167 593.5,236.5C 590.931,236.262 589.265,234.929 588.5,232.5C 588.573,230.973 587.906,229.973 586.5,229.5C 585.194,228.533 584.527,227.199 584.5,225.5C 587.77,226.103 589.77,228.103 590.5,231.5C 591.333,215.177 591.833,198.844 592,182.5C 592.278,183.416 592.778,184.082 593.5,184.5 Z"/></g>
<g><path style="opacity:0.006" fill="#fefffe" d="M 586.5,229.5 C 587.906,229.973 588.573,230.973 588.5,232.5C 587.094,232.027 586.427,231.027 586.5,229.5 Z"/></g>
<g><path style="opacity:0.989" fill="#c0c0c0" d="M 358.5,231.5 C 358.586,232.496 358.252,233.329 357.5,234C 411.5,234.333 465.5,234.667 519.5,235C 545.107,241.605 557.274,258.105 556,284.5C 554.78,293.607 550.947,301.274 544.5,307.5C 536.601,303.608 528.268,301.108 519.5,300C 518.934,299.005 518.267,298.172 517.5,297.5C 530.61,291.284 534.11,281.618 528,268.5C 525.677,265.422 522.843,262.922 519.5,261C 459.224,259.678 398.891,259.011 338.5,259C 337.72,257.927 337.887,256.76 339,255.5C 345.743,247.601 352.243,239.601 358.5,231.5 Z"/></g>
<g><path style="opacity:1" fill="#0170b5" d="M 90.5,233.5 C 142.763,234.329 195.096,234.829 247.5,235C 278.477,239.429 292.31,257.262 289,288.5C 283.604,307.065 271.438,318.065 252.5,321.5C 201.5,321.5 150.5,321.5 99.5,321.5C 99.5,358.833 99.5,396.167 99.5,433.5C 90.8333,433.5 82.1667,433.5 73.5,433.5C 73.1697,388.928 73.5031,344.428 74.5,300C 73.5842,299.722 72.9175,299.222 72.5,298.5C 130.353,298.653 188.353,298.486 246.5,298C 261.356,295.431 267.189,286.598 264,271.5C 262.389,267.725 259.889,264.725 256.5,262.5C 256.611,261.883 256.944,261.383 257.5,261C 254.406,260.529 252.739,258.696 252.5,255.5C 222.979,256.826 193.312,257.492 163.5,257.5C 134.167,257.167 104.833,256.833 75.5,256.5C 78.6748,253.786 80.8414,250.453 82,246.5C 82.3333,246.833 82.6667,247.167 83,247.5C 84.5722,244.178 86.7388,241.344 89.5,239C 89.4021,237.715 89.4021,236.549 89.5,235.5C 89.8333,234.833 90.1667,234.167 90.5,233.5 Z"/></g>
<g><path style="opacity:0.62" fill="#2278b0" d="M 89.5,235.5 C 89.4021,236.549 89.4021,237.715 89.5,239C 86.7388,241.344 84.5722,244.178 83,247.5C 82.6667,247.167 82.3333,246.833 82,246.5C 80.8414,250.453 78.6748,253.786 75.5,256.5C 104.833,256.833 134.167,257.167 163.5,257.5C 193.312,257.492 222.979,256.826 252.5,255.5C 252.739,258.696 254.406,260.529 257.5,261C 256.944,261.383 256.611,261.883 256.5,262.5C 254.641,261.406 252.641,260.573 250.5,260C 191.168,259.5 131.834,259.333 72.5,259.5C 72.3433,258.127 72.51,256.793 73,255.5C 78.3643,248.644 83.8643,241.977 89.5,235.5 Z"/></g>
<g><path style="opacity:0.004" fill="#fefffe" d="M 566.5,321.5 C 567.833,322.5 567.833,323.5 566.5,324.5C 566.5,323.5 566.5,322.5 566.5,321.5 Z"/></g>
<g><path style="opacity:1" fill="#b0afae" d="M 367.5,320.5 C 416.992,322.165 466.658,323.165 516.5,323.5C 466.949,322.845 417.616,323.512 368.5,325.5C 365.028,324.423 364.695,322.756 367.5,320.5 Z"/></g>
<g><path style="opacity:1" fill="#0b6da7" d="M 252.5,321.5 C 202.003,322.499 151.336,322.832 100.5,322.5C 100.5,359.5 100.5,396.5 100.5,433.5C 100.5,433.833 100.5,434.167 100.5,434.5C 91.3178,434.827 82.3178,434.493 73.5,433.5C 82.1667,433.5 90.8333,433.5 99.5,433.5C 99.5,396.167 99.5,358.833 99.5,321.5C 150.5,321.5 201.5,321.5 252.5,321.5 Z"/></g>
<g><path style="opacity:0.992" fill="#c0c0c0" d="M 516.5,323.5 C 538.158,326.655 551.324,338.988 556,360.5C 557.272,388.135 544.438,404.969 517.5,411C 464.501,411.5 411.501,411.667 358.5,411.5C 358.5,412.5 358.5,413.5 358.5,414.5C 350.409,406.401 343.409,397.401 337.5,387.5C 396.497,386.667 455.497,386.167 514.5,386C 527.707,382.424 532.873,373.924 530,360.5C 527.105,353.622 521.939,349.455 514.5,348C 474.167,347.667 433.833,347.333 393.5,347C 384.385,340.717 376.052,333.55 368.5,325.5C 417.616,323.512 466.949,322.845 516.5,323.5 Z"/></g>
<g><path style="opacity:0.182" fill="#6eb0d3" d="M 255.5,346.5 C 249.681,347.328 243.681,347.828 237.5,348C 201.835,348.5 166.168,348.667 130.5,348.5C 131.953,347.175 131.619,346.342 129.5,346C 171.571,345.173 213.571,345.34 255.5,346.5 Z"/></g>
<g><path style="opacity:0.525" fill="#1c7ab4" d="M 72.5,298.5 C 72.9175,299.222 73.5842,299.722 74.5,300C 73.5031,344.428 73.1697,388.928 73.5,433.5C 82.3178,434.493 91.3178,434.827 100.5,434.5C 101.338,434.842 101.672,435.508 101.5,436.5C 91.5837,436.819 81.7504,436.486 72,435.5C 71.1685,389.665 71.3352,343.998 72.5,298.5 Z"/></g>
<g><path style="opacity:0.475" fill="#48a8d1" d="M 130.5,434.5 C 125.962,436.48 120.962,437.48 115.5,437.5C 110.851,436.872 106.184,436.539 101.5,436.5C 101.672,435.508 101.338,434.842 100.5,434.5C 100.5,434.167 100.5,433.833 100.5,433.5C 109.5,433.5 118.5,433.5 127.5,433.5C 127.333,404.165 127.5,374.831 128,345.5C 127.839,375.517 128.673,405.184 130.5,434.5 Z"/></g>
<g><path style="opacity:0.055" fill="#7b7e7e" d="M 372.5,432.5 C 373.756,432.461 374.756,432.961 375.5,434C 425.276,434.475 474.943,434.642 524.5,434.5C 519.71,435.725 514.71,436.392 509.5,436.5C 466.167,436.5 422.833,436.5 379.5,436.5C 376.188,436.851 373.855,435.518 372.5,432.5 Z"/></g>
<g><path style="opacity:0.004" fill="#fefffe" d="M 379.5,436.5 C 422.833,436.5 466.167,436.5 509.5,436.5C 467.006,438.037 424.34,438.537 381.5,438C 380.584,437.722 379.918,437.222 379.5,436.5 Z"/></g>
<g><path style="opacity:0.004" fill="#fefffe" d="M 82.5,438.5 C 85.9758,437.357 89.6425,437.19 93.5,438C 89.8484,438.499 86.1817,438.665 82.5,438.5 Z"/></g>
<g><path style="opacity:0.004" fill="#fefffe" d="M 422.5,455.5 C 423.946,454.387 425.613,454.22 427.5,455C 425.866,455.494 424.199,455.66 422.5,455.5 Z"/></g>
<g><path style="opacity:0.006" fill="#fefffe" d="M 114.5,457.5 C 110.833,457.5 107.167,457.5 103.5,457.5C 103.5,457.167 103.5,456.833 103.5,456.5C 104.496,456.586 105.329,456.252 106,455.5C 108.939,456.128 111.772,456.795 114.5,457.5 Z"/></g>
<g><path style="opacity:0.559" fill="#57a2c9" d="M 62.5,466.5 C 61.7784,466.082 61.2784,465.416 61,464.5C 60.6667,464.833 60.3333,465.167 60,465.5C 59.6667,471.167 59.3333,476.833 59,482.5C 58.6667,473.5 58.3333,464.5 58,455.5C 57.8247,460.019 57.3247,464.353 56.5,468.5C 56.0398,461.323 56.5398,454.323 58,447.5C 59.8574,450.937 61.1907,454.604 62,458.5C 62.4974,461.146 62.6641,463.813 62.5,466.5 Z"/></g>
<g><path style="opacity:1" fill="#32a4db" d="M 62.5,466.5 C 70.3928,500.895 89.0594,528.062 118.5,548C 127.391,552.908 136.725,556.742 146.5,559.5C 152.149,561.802 158.149,563.135 164.5,563.5C 172.006,564.347 179.672,565.014 187.5,565.5C 188.705,566.686 190.039,566.686 191.5,565.5C 200.037,565.536 208.37,564.869 216.5,563.5C 220.664,563.044 224.664,562.378 228.5,561.5C 236.118,559.817 244.118,557.983 252.5,556C 266.004,551.531 280.004,546.364 294.5,540.5C 295.71,540.068 296.71,539.401 297.5,538.5C 297.833,538.5 298.167,538.5 298.5,538.5C 299.71,538.068 300.71,537.401 301.5,536.5C 303.167,535.833 304.833,535.167 306.5,534.5C 307.71,534.068 308.71,533.401 309.5,532.5C 310.492,532.672 311.158,532.338 311.5,531.5C 315.242,529.488 318.909,527.488 322.5,525.5C 356.12,506.725 386.786,483.892 414.5,457C 423.494,456.5 432.494,456.334 441.5,456.5C 432.889,458.31 423.889,459.144 414.5,459C 424.161,459.5 433.828,459.666 443.5,459.5C 398.945,502.838 347.612,536.004 289.5,559C 250.188,574.331 209.521,579.997 167.5,576C 135.346,571.82 108.18,557.987 86,534.5C 86.7473,536.976 88.0806,539.309 90,541.5C 120.146,573.48 157.313,588.813 201.5,587.5C 236.714,586.576 270.714,579.743 303.5,567C 365.195,542.164 419.528,506.331 466.5,459.5C 472.425,459.192 478.259,459.525 484,460.5C 484.5,460 485,459.5 485.5,459C 479.084,459.129 473.084,458.295 467.5,456.5C 473.842,456.334 480.175,456.5 486.5,457C 487.446,459.298 486.779,461.132 484.5,462.5C 483.504,462.586 482.671,462.252 482,461.5C 478.252,467.417 473.419,472.083 467.5,475.5C 466.833,477.5 466.167,479.5 465.5,481.5C 441.877,504.461 416.211,524.794 388.5,542.5C 387.5,542.833 386.833,543.5 386.5,544.5C 358.795,562.403 329.462,577.07 298.5,588.5C 297.005,588.989 295.671,589.655 294.5,590.5C 251.162,606.786 206.495,611.286 160.5,604C 107.83,590.997 74.6632,558.164 61,505.5C 58.7605,493.251 57.2605,480.918 56.5,468.5C 57.3247,464.353 57.8247,460.019 58,455.5C 58.3333,464.5 58.6667,473.5 59,482.5C 59.3333,476.833 59.6667,471.167 60,465.5C 60.3333,465.167 60.6667,464.833 61,464.5C 61.2784,465.416 61.7784,466.082 62.5,466.5 Z"/></g>
<g><path style="opacity:0.997" fill="#747372" d="M 79.5,457.5 C 82.1873,457.336 84.854,457.503 87.5,458C 88.3081,458.308 88.9747,458.808 89.5,459.5C 105.221,516.51 142.555,546.01 201.5,548C 148.194,540.194 115.527,510.027 103.5,457.5C 107.167,457.5 110.833,457.5 114.5,457.5C 115.75,457.577 116.583,458.244 117,459.5C 131.062,510.128 163.228,539.128 213.5,546.5C 212.761,546.369 212.094,546.536 211.5,547C 213.167,547.333 214.833,547.667 216.5,548C 215.619,548.708 214.953,549.542 214.5,550.5C 174.058,556.606 138.891,545.939 109,518.5C 92.6197,501.08 82.7864,480.746 79.5,457.5 Z"/></g>
<g><path style="opacity:1" fill="#bebebe" d="M 79.5,457.5 C 87.3159,456.508 95.3159,456.174 103.5,456.5C 103.5,456.833 103.5,457.167 103.5,457.5C 115.527,510.027 148.194,540.194 201.5,548C 142.555,546.01 105.221,516.51 89.5,459.5C 88.9747,458.808 88.3081,458.308 87.5,458C 84.854,457.503 82.1873,457.336 79.5,457.5 Z"/></g>
<g><path style="opacity:0.561" fill="#2f88b7" d="M 441.5,456.5 C 450.167,456.5 458.833,456.5 467.5,456.5C 473.084,458.295 479.084,459.129 485.5,459C 485,459.5 484.5,460 484,460.5C 478.259,459.525 472.425,459.192 466.5,459.5C 458.833,459.5 451.167,459.5 443.5,459.5C 433.828,459.666 424.161,459.5 414.5,459C 423.889,459.144 432.889,458.31 441.5,456.5 Z"/></g>
<g><path style="opacity:1" fill="#0071b6" d="M 443.5,459.5 C 451.167,459.5 458.833,459.5 466.5,459.5C 419.528,506.331 365.195,542.164 303.5,567C 270.714,579.743 236.714,586.576 201.5,587.5C 157.313,588.813 120.146,573.48 90,541.5C 88.0806,539.309 86.7473,536.976 86,534.5C 108.18,557.987 135.346,571.82 167.5,576C 209.521,579.997 250.188,574.331 289.5,559C 347.612,536.004 398.945,502.838 443.5,459.5 Z"/></g>
<g><path style="opacity:0.18" fill="#86bee2" d="M 484.5,462.5 C 478.5,469.167 472.167,475.5 465.5,481.5C 466.167,479.5 466.833,477.5 467.5,475.5C 473.419,472.083 478.252,467.417 482,461.5C 482.671,462.252 483.504,462.586 484.5,462.5 Z"/></g>
<g><path style="opacity:0.004" fill="#fefffe" d="M 322.5,525.5 C 321.833,524.167 321.833,524.167 322.5,525.5 Z"/></g>
<g><path style="opacity:0.004" fill="#fefffe" d="M 311.5,531.5 C 310.833,530.167 310.833,530.167 311.5,531.5 Z"/></g>
<g><path style="opacity:0.005" fill="#fefffe" d="M 309.5,532.5 C 308.71,533.401 307.71,534.068 306.5,534.5C 306.821,532.952 307.821,532.285 309.5,532.5 Z"/></g>
<g><path style="opacity:0.004" fill="#fefffe" d="M 301.5,536.5 C 300.71,537.401 299.71,538.068 298.5,538.5C 298.821,536.952 299.821,536.285 301.5,536.5 Z"/></g>
<g><path style="opacity:0.006" fill="#fefffe" d="M 297.5,538.5 C 296.71,539.401 295.71,540.068 294.5,540.5C 294.821,538.952 295.821,538.285 297.5,538.5 Z"/></g>
<g><path style="opacity:0.008" fill="#fefffe" d="M 388.5,542.5 C 388.5,543.833 387.833,544.5 386.5,544.5C 386.833,543.5 387.5,542.833 388.5,542.5 Z"/></g>
<g><path style="opacity:0.455" fill="#588ba7" d="M 213.5,546.5 C 217.226,546.177 220.893,546.511 224.5,547.5C 223.91,548.799 222.91,549.632 221.5,550C 219.19,550.497 216.857,550.663 214.5,550.5C 214.953,549.542 215.619,548.708 216.5,548C 214.833,547.667 213.167,547.333 211.5,547C 212.094,546.536 212.761,546.369 213.5,546.5 Z"/></g>
<g><path style="opacity:0.004" fill="#fefffe" d="M 146.5,558.5 C 147.833,559.167 147.833,559.167 146.5,558.5 Z"/></g>
<g><path style="opacity:0.004" fill="#fefffe" d="M 228.5,561.5 C 227.833,560.167 227.833,560.167 228.5,561.5 Z"/></g>
<g><path style="opacity:0.004" fill="#fefffe" d="M 164.5,562.5 C 165.833,563.167 165.833,563.167 164.5,562.5 Z"/></g>
<g><path style="opacity:0.004" fill="#fefffe" d="M 216.5,563.5 C 215.833,562.167 215.833,562.167 216.5,563.5 Z"/></g>
<g><path style="opacity:0.008" fill="#fefffe" d="M 191.5,565.5 C 190.039,566.686 188.705,566.686 187.5,565.5C 188.833,564.167 190.167,564.167 191.5,565.5 Z"/></g>
<g><path style="opacity:0.007" fill="#fefffe" d="M 298.5,588.5 C 297.817,590.176 296.483,590.843 294.5,590.5C 295.671,589.655 297.005,588.989 298.5,588.5 Z"/></g>
</svg>
